<svg width="37" height="32" viewBox="0 0 37 32" fill="none" xmlns="http://www.w3.org/2000/svg">
<path fill-rule="evenodd" clip-rule="evenodd" d="M29.0455 9.96841C33.673 11.3674 36.6913 13.6233 36.6913 16.0037C36.6913 18.3767 33.6879 20.6326 29.09 22.0316C30.1653 26.6752 29.6981 30.374 27.6142 31.5605C27.1247 31.8389 26.5611 31.9707 25.9382 31.9707C23.8988 31.9707 21.2291 30.5498 18.5297 28.0742C15.8303 30.5644 13.1605 32 11.1211 32C10.4982 32 9.93459 31.8682 9.45256 31.5898C7.36126 30.4033 6.88664 26.6972 7.95454 22.0389C3.32699 20.64 0.308701 18.3841 0.308701 16.0037C0.308701 13.6306 3.31216 11.382 7.92487 9.97574C6.84956 5.33211 7.31676 1.63333 9.40064 0.446784C9.8901 0.168459 10.4537 0.0366216 11.0766 0.0366216V0.0292974C13.116 0.0292974 15.7858 1.45022 18.4852 3.92584C21.1846 1.43557 23.8543 0 25.8937 0V0.00733061C26.5063 0.00838613 27.0674 0.14028 27.5475 0.417487C29.6387 1.60403 30.1134 5.31014 29.0455 9.96841ZM25.8863 1.63334C24.3439 1.63722 22.078 2.85272 19.6643 5.06844C20.71 6.14511 21.7482 7.3756 22.7493 8.7306C24.4179 8.90638 26.0049 9.17739 27.4585 9.52895C27.6216 8.7892 27.7551 8.06409 27.8367 7.3756C28.1778 4.57771 27.7403 2.40238 26.7317 1.83108C26.5018 1.70657 26.2274 1.64065 25.8863 1.64065V1.63334ZM17.306 5.07576C14.8884 2.87114 12.6117 1.66262 11.0766 1.66262V1.66995C10.7355 1.66995 10.4463 1.72854 10.2238 1.86038C9.22266 2.439 8.79254 4.61433 9.14109 7.41222C9.23008 8.09338 9.35615 8.80384 9.52672 9.53628C10.9802 9.17739 12.5673 8.90638 14.2433 8.7306C15.2296 7.3756 16.2678 6.15244 17.306 5.07576ZM26.0346 14.0114C26.4202 13.0373 26.7614 12.0632 27.0358 11.1183C26.0643 10.884 25.0483 10.6935 23.9952 10.5397C24.3586 11.0964 24.722 11.6677 25.0631 12.2536C25.4117 12.8396 25.7305 13.4255 26.0346 14.0114ZM21.852 21.7166C22.4675 20.845 23.0608 19.9075 23.6392 18.9187C24.1954 17.9593 24.7071 16.9778 25.1744 15.9963C24.7071 15.0149 24.1954 14.0407 23.6318 13.0813C23.0534 12.0998 22.4527 11.1696 21.8372 10.298C20.7396 10.2101 19.6198 10.1588 18.5 10.1588C17.3728 10.1588 16.253 10.2101 15.148 10.3053C14.5325 11.1769 13.9392 12.1144 13.3608 13.1032C12.8046 14.0627 12.2854 15.0442 11.8257 16.0256C12.2929 17.0071 12.8046 17.9812 13.3682 18.9407C13.9466 19.9222 14.5473 20.8524 15.1628 21.724C16.2604 21.8119 17.3802 21.8631 18.5 21.8631C19.6272 21.8631 20.747 21.8119 21.852 21.7166ZM27.058 20.8817C26.7762 19.9295 26.4351 18.948 26.0346 17.9666C25.7305 18.5525 25.4117 19.1458 25.0705 19.7317C24.7294 20.325 24.366 20.9036 24.0026 21.4676C25.0631 21.3138 26.0865 21.116 27.058 20.8817ZM16.4532 23.4379C17.1355 24.2948 17.8252 25.0785 18.5148 25.7816C19.1971 25.0785 19.8868 24.2948 20.5542 23.4379C19.8794 23.4745 19.1897 23.4891 18.4926 23.4891C17.8029 23.4891 17.1206 23.4672 16.4532 23.4379ZM9.95684 20.889C10.9283 21.1234 11.9443 21.3138 12.9974 21.4676C12.634 20.911 12.278 20.3397 11.9295 19.7537C11.5809 19.1678 11.262 18.5818 10.958 17.9959C10.5724 18.97 10.2312 19.9442 9.95684 20.889ZM20.5394 8.56947C19.8571 7.71252 19.1674 6.92882 18.4778 6.22568C17.7955 6.92882 17.1058 7.71252 16.4384 8.56947C17.1132 8.53284 17.8029 8.5182 18.5 8.5182C19.1897 8.5182 19.872 8.54017 20.5394 8.56947ZM11.9221 12.2756C12.2632 11.6823 12.6266 11.1037 12.99 10.5397C11.9295 10.6935 10.9061 10.8913 9.93459 11.1183C10.2164 12.0705 10.5575 13.052 10.958 14.0334C11.262 13.4475 11.5809 12.8615 11.9221 12.2756ZM1.95504 16.0037C1.95504 17.1536 3.65329 18.6038 6.27853 19.7098C6.92372 19.9808 7.62082 20.2298 8.355 20.4569C8.77029 19.0286 9.31907 17.5418 10.0013 16.0183C9.31165 14.4875 8.75546 12.9934 8.33275 11.5578C7.6134 11.7848 6.91631 12.0265 6.27853 12.2975C3.65329 13.3962 1.95504 14.8537 1.95504 16.0037ZM9.16333 24.6317C8.8222 27.4296 9.25974 29.6049 10.2683 30.1762C10.4908 30.3008 10.7726 30.3667 11.1063 30.374C12.6488 30.374 14.9181 29.1582 17.3357 26.9389C16.2901 25.8622 15.2518 24.6317 14.2507 23.2767C12.5821 23.1009 10.9951 22.8299 9.54155 22.4784C9.3784 23.2181 9.24491 23.9432 9.16333 24.6317ZM26.7762 30.1469C27.7773 29.5683 28.2075 27.393 27.8589 24.5951C27.7773 23.9139 27.6439 23.2035 27.4733 22.4637C26.0198 22.8226 24.4328 23.0936 22.7568 23.2694C21.7704 24.6244 20.7322 25.8476 19.694 26.9242C22.1116 29.1289 24.3883 30.3374 25.9234 30.3374C26.2645 30.3374 26.5537 30.2788 26.7762 30.1469ZM28.6598 20.4495C29.3792 20.2225 30.0763 19.9808 30.7141 19.7098C33.3393 18.6111 35.0376 17.1536 35.045 16.0037C35.045 14.8537 33.3467 13.4035 30.7215 12.2975C30.0689 12.0265 29.3718 11.7775 28.6376 11.5505C28.2223 12.9787 27.6735 14.4656 26.9913 15.989C27.6809 17.5198 28.2371 19.014 28.6598 20.4495ZM21.8815 16.0037C21.8815 17.8523 20.3642 19.3509 18.4925 19.3509C16.6207 19.3509 15.1034 17.8523 15.1034 16.0037C15.1034 14.1551 16.6207 12.6565 18.4925 12.6565C20.3642 12.6565 21.8815 14.1551 21.8815 16.0037Z" fill="#72DAD6"/>
</svg>
