<svg width="16" height="16" viewBox="0 0 16 16" fill="none" xmlns="http://www.w3.org/2000/svg">
<g clip-path="url(#clip0_16_6)">
<path fill-rule="evenodd" clip-rule="evenodd" d="M6.50024 5.5C6.50024 3.29086 8.2911 1.5 10.5002 1.5C12.7093 1.5 14.5002 3.29086 14.5002 5.5C14.5002 7.70914 12.7093 9.5 10.5002 9.5C10.0555 9.5 9.62932 9.42773 9.23168 9.29488C8.96207 9.20479 8.66469 9.27489 8.46369 9.47589L7.43958 10.5H6.25024C5.83603 10.5 5.50024 10.8358 5.50024 11.25V12.4393L5.43958 12.5H4.25024C3.83603 12.5 3.50024 12.8358 3.50024 13.25V14.4393L3.43958 14.5H1.75024C1.61217 14.5 1.50024 14.3881 1.50024 14.25V12.5607L6.52435 7.53655C6.72535 7.33555 6.79545 7.03818 6.70537 6.76856C6.57251 6.37092 6.50024 5.94466 6.50024 5.5ZM10.5002 0C7.46267 0 5.00024 2.46243 5.00024 5.5C5.00024 5.94272 5.0527 6.374 5.15197 6.78761L0.219914 11.7197C0.0792617 11.8603 0.000244141 12.0511 0.000244141 12.25V14.25C0.000244141 15.2165 0.783746 16 1.75024 16H3.75024C3.94915 16 4.13992 15.921 4.28057 15.7803L4.78057 15.2803C4.92122 15.1397 5.00024 14.9489 5.00024 14.75V14H5.75024C5.94915 14 6.13992 13.921 6.28057 13.7803L6.78057 13.2803C6.92122 13.1397 7.00024 12.9489 7.00024 12.75V12H7.75024C7.94915 12 8.13992 11.921 8.28057 11.7803L9.21263 10.8483C9.62624 10.9475 10.0575 11 10.5002 11C13.5378 11 16.0002 8.53757 16.0002 5.5C16.0002 2.46243 13.5378 0 10.5002 0ZM11.0002 6C11.5525 6 12.0002 5.55228 12.0002 5C12.0002 4.44772 11.5525 4 11.0002 4C10.4479 4 10.0002 4.44772 10.0002 5C10.0002 5.55228 10.4479 6 11.0002 6Z" fill="white"/>
</g>
<defs>
<clipPath id="clip0_16_6">
<rect width="16" height="16" fill="white" transform="translate(0.000244141)"/>
</clipPath>
</defs>
</svg>
